0
SECTION
2
ENTITIES
0
LINE
8
SUBGRADE
10
-55.814510
20
-20.900000
30
0.0
11
47.549568
21
-20.900000
31
0.0
0
LINE
8
SUBGRADE
10
47.549568
20
-20.900000
30
0.0
11
47.549568
21
-10.900000
31
0.0
0
LINE
8
SUBGRADE
10
47.549568
20
-10.900000
30
0.0
11
-55.814510
21
-10.900000
31
0.0
0
LINE
8
SUBGRADE
10
-55.814510
20
-10.900000
30
0.0
11
-55.814510
21
-20.900000
31
0.0
0
LINE
8
SAND
10
-45.558326
20
-10.900000
30
0.0
11
-43.814510
21
-9.737456
31
0.0
0
LINE
8
SAND
10
-43.814510
20
-9.737456
30
0.0
11
35.549568
21
-9.737456
31
0.0
0
LINE
8
SAND
10
35.549568
20
-9.737456
30
0.0
11
37.293385
21
-10.900000
31
0.0
0
LINE
8
SAND
10
37.293385
20
-10.900000
30
0.0
11
-45.558326
21
-10.900000
31
0.0
0
LINE
8
LINES
10
-45.558326
20
-10.900000
30
0.0
11
37.293385
21
-10.900000
31
0.0
0
LINE
8
CORE
10
-29.880769
20
-9.737456
30
0.0
11
-6.600438
21
1.902710
31
0.0
0
LINE
8
CORE
10
-6.600438
20
1.902710
30
0.0
11
6.274257
21
1.902710
31
0.0
0
LINE
8
CORE
10
6.274257
20
1.902710
30
0.0
11
23.734504
21
-9.737456
31
0.0
0
LINE
8
CORE
10
23.734504
20
-9.737456
30
0.0
11
-29.880769
21
-9.737456
31
0.0
0
LINE
8
UNDERLAYER
10
-33.346806
20
-9.737456
30
0.0
11
-6.966357
21
3.452769
31
0.0
0
LINE
8
UNDERLAYER
10
-6.966357
20
3.452769
30
0.0
11
6.743577
21
3.452769
31
0.0
0
LINE
8
UNDERLAYER
10
6.743577
20
3.452769
30
0.0
11
26.528913
21
-9.737456
31
0.0
0
LINE
8
UNDERLAYER
10
26.528913
20
-9.737456
30
0.0
11
23.734504
21
-9.737456
31
0.0
0
LINE
8
UNDERLAYER
10
23.734504
20
-9.737456
30
0.0
11
6.274257
21
1.902710
31
0.0
0
LINE
8
UNDERLAYER
10
6.274257
20
1.902710
30
0.0
11
-6.600438
21
1.902710
31
0.0
0
LINE
8
UNDERLAYER
10
-6.600438
20
1.902710
30
0.0
11
-29.880769
21
-9.737456
31
0.0
0
LINE
8
UNDERLAYER
10
-29.880769
20
-9.737456
30
0.0
11
-33.346806
21
-9.737456
31
0.0
0
LINE
8
ARMOUR
10
-40.814510
20
-9.737456
30
0.0
11
-7.754744
21
6.792427
31
0.0
0
LINE
8
ARMOUR
10
-7.754744
20
6.792427
30
0.0
11
7.754744
21
6.792427
31
0.0
0
LINE
8
ARMOUR
10
7.754744
20
6.792427
30
0.0
11
32.549568
21
-9.737456
31
0.0
0
LINE
8
ARMOUR
10
32.549568
20
-9.737456
30
0.0
11
26.528913
21
-9.737456
31
0.0
0
LINE
8
ARMOUR
10
26.528913
20
-9.737456
30
0.0
11
6.743577
21
3.452769
31
0.0
0
LINE
8
ARMOUR
10
6.743577
20
3.452769
30
0.0
11
-6.966357
21
3.452769
31
0.0
0
LINE
8
ARMOUR
10
-6.966357
20
3.452769
30
0.0
11
-33.346806
21
-9.737456
31
0.0
0
LINE
8
ARMOUR
10
-33.346806
20
-9.737456
30
0.0
11
-40.814510
21
-9.737456
31
0.0
0
LINE
8
TOE
10
-45.464687
20
-9.737456
30
0.0
11
-43.139598
21
-8.187397
31
0.0
0
LINE
8
TOE
10
-43.139598
20
-8.187397
30
0.0
11
-40.314510
21
-8.187397
31
0.0
0
LINE
8
TOE
10
-40.314510
20
-8.187397
30
0.0
11
-40.314510
21
-9.737456
31
0.0
0
LINE
8
TOE
10
-40.314510
20
-9.737456
30
0.0
11
-45.464687
21
-9.737456
31
0.0
0
LINE
8
TOE
10
37.199745
20
-9.737456
30
0.0
11
34.874657
21
-8.187397
31
0.0
0
LINE
8
TOE
10
34.874657
20
-8.187397
30
0.0
11
32.049568
21
-8.187397
31
0.0
0
LINE
8
TOE
10
32.049568
20
-8.187397
30
0.0
11
32.049568
21
-9.737456
31
0.0
0
LINE
8
TOE
10
32.049568
20
-9.737456
30
0.0
11
37.199745
21
-9.737456
31
0.0
0
LINE
8
CONCRETE
10
-2.745256
20
3.452769
30
0.0
11
6.754744
21
3.452769
31
0.0
0
LINE
8
CONCRETE
10
6.754744
20
3.452769
30
0.0
11
6.754744
21
6.792427
31
0.0
0
LINE
8
CONCRETE
10
6.754744
20
6.792427
30
0.0
11
-0.745256
21
6.792427
31
0.0
0
LINE
8
CONCRETE
10
-0.745256
20
6.792427
30
0.0
11
-0.745256
21
7.992427
31
0.0
0
LINE
8
CONCRETE
10
-0.745256
20
7.992427
30
0.0
11
-2.745256
21
7.992427
31
0.0
0
LINE
8
CONCRETE
10
-2.745256
20
7.992427
30
0.0
11
-2.745256
21
3.452769
31
0.0
0
LINE
8
GRANULAR
10
6.754744
20
3.452769
30
0.0
11
7.754744
21
3.452769
31
0.0
0
LINE
8
GRANULAR
10
7.754744
20
3.452769
30
0.0
11
7.754744
21
6.792427
31
0.0
0
LINE
8
GRANULAR
10
7.754744
20
6.792427
30
0.0
11
6.754744
21
6.792427
31
0.0
0
LINE
8
GRANULAR
10
6.754744
20
6.792427
30
0.0
11
6.754744
21
3.452769
31
0.0
0
LINE
8
SUBGRADE
10
-55.828382
20
-20.900000
30
0.0
11
47.608325
21
-20.900000
31
0.0
0
LINE
8
SUBGRADE
10
47.608325
20
-20.900000
30
0.0
11
47.608325
21
-10.900000
31
0.0
0
LINE
8
SUBGRADE
10
47.608325
20
-10.900000
30
0.0
11
-55.828382
21
-10.900000
31
0.0
0
LINE
8
SUBGRADE
10
-55.828382
20
-10.900000
30
0.0
11
-55.828382
21
-20.900000
31
0.0
0
LINE
8
SAND
10
-45.706851
20
-10.900000
30
0.0
11
-43.828382
21
-9.647687
31
0.0
0
LINE
8
SAND
10
-43.828382
20
-9.647687
30
0.0
11
35.608325
21
-9.647687
31
0.0
0
LINE
8
SAND
10
35.608325
20
-9.647687
30
0.0
11
37.486794
21
-10.900000
31
0.0
0
LINE
8
SAND
10
37.486794
20
-10.900000
30
0.0
11
-45.706851
21
-10.900000
31
0.0
0
LINE
8
LINES
10
-45.706851
20
-10.900000
30
0.0
11
37.486794
21
-10.900000
31
0.0
0
LINE
8
CORE
10
-29.050367
20
-9.647687
30
0.0
11
-6.704715
21
1.525139
31
0.0
0
LINE
8
CORE
10
-6.704715
20
1.525139
30
0.0
11
6.353347
21
1.525139
31
0.0
0
LINE
8
CORE
10
6.353347
20
1.525139
30
0.0
11
23.112585
21
-9.647687
31
0.0
0
LINE
8
CORE
10
23.112585
20
-9.647687
30
0.0
11
-29.050367
21
-9.647687
31
0.0
0
LINE
8
UNDERLAYER
10
-32.784042
20
-9.647687
30
0.0
11
-7.098890
21
3.194889
31
0.0
0
LINE
8
UNDERLAYER
10
-7.098890
20
3.194889
30
0.0
11
6.858907
21
3.194889
31
0.0
0
LINE
8
UNDERLAYER
10
6.858907
20
3.194889
30
0.0
11
26.122771
21
-9.647687
31
0.0
0
LINE
8
UNDERLAYER
10
26.122771
20
-9.647687
30
0.0
11
23.112585
21
-9.647687
31
0.0
0
LINE
8
UNDERLAYER
10
23.112585
20
-9.647687
30
0.0
11
6.353347
21
1.525139
31
0.0
0
LINE
8
UNDERLAYER
10
6.353347
20
1.525139
30
0.0
11
-6.704715
21
1.525139
31
0.0
0
LINE
8
UNDERLAYER
10
-6.704715
20
1.525139
30
0.0
11
-29.050367
21
-9.647687
31
0.0
0
LINE
8
UNDERLAYER
10
-29.050367
20
-9.647687
30
0.0
11
-32.784042
21
-9.647687
31
0.0
0
LINE
8
ARMOUR
10
-40.828382
20
-9.647687
30
0.0
11
-7.948154
21
6.792427
31
0.0
0
LINE
8
ARMOUR
10
-7.948154
20
6.792427
30
0.0
11
7.948154
21
6.792427
31
0.0
0
LINE
8
ARMOUR
10
7.948154
20
6.792427
30
0.0
11
32.608325
21
-9.647687
31
0.0
0
LINE
8
ARMOUR
10
32.608325
20
-9.647687
30
0.0
11
26.122771
21
-9.647687
31
0.0
0
LINE
8
ARMOUR
10
26.122771
20
-9.647687
30
0.0
11
6.858907
21
3.194889
31
0.0
0
LINE
8
ARMOUR
10
6.858907
20
3.194889
30
0.0
11
-7.098890
21
3.194889
31
0.0
0
LINE
8
ARMOUR
10
-7.098890
20
3.194889
30
0.0
11
-32.784042
21
-9.647687
31
0.0
0
LINE
8
ARMOUR
10
-32.784042
20
-9.647687
30
0.0
11
-40.828382
21
-9.647687
31
0.0
0
LINE
8
TOE
10
-45.837634
20
-9.647687
30
0.0
11
-43.333008
21
-7.977937
31
0.0
0
LINE
8
TOE
10
-43.333008
20
-7.977937
30
0.0
11
-40.328382
21
-7.977937
31
0.0
0
LINE
8
TOE
10
-40.328382
20
-7.977937
30
0.0
11
-40.328382
21
-9.647687
31
0.0
0
LINE
8
TOE
10
-40.328382
20
-9.647687
30
0.0
11
-45.837634
21
-9.647687
31
0.0
0
LINE
8
TOE
10
37.617577
20
-9.647687
30
0.0
11
35.112951
21
-7.977937
31
0.0
0
LINE
8
TOE
10
35.112951
20
-7.977937
30
0.0
11
32.108325
21
-7.977937
31
0.0
0
LINE
8
TOE
10
32.108325
20
-7.977937
30
0.0
11
32.108325
21
-9.647687
31
0.0
0
LINE
8
TOE
10
32.108325
20
-9.647687
30
0.0
11
37.617577
21
-9.647687
31
0.0
0
LINE
8
CONCRETE
10
-2.551846
20
3.194889
30
0.0
11
6.948154
21
3.194889
31
0.0
0
LINE
8
CONCRETE
10
6.948154
20
3.194889
30
0.0
11
6.948154
21
6.792427
31
0.0
0
LINE
8
CONCRETE
10
6.948154
20
6.792427
30
0.0
11
-0.551846
21
6.792427
31
0.0
0
LINE
8
CONCRETE
10
-0.551846
20
6.792427
30
0.0
11
-0.551846
21
7.992427
31
0.0
0
LINE
8
CONCRETE
10
-0.551846
20
7.992427
30
0.0
11
-2.551846
21
7.992427
31
0.0
0
LINE
8
CONCRETE
10
-2.551846
20
7.992427
30
0.0
11
-2.551846
21
3.194889
31
0.0
0
LINE
8
GRANULAR
10
6.948154
20
3.194889
30
0.0
11
7.948154
21
3.194889
31
0.0
0
LINE
8
GRANULAR
10
7.948154
20
3.194889
30
0.0
11
7.948154
21
6.792427
31
0.0
0
LINE
8
GRANULAR
10
7.948154
20
6.792427
30
0.0
11
6.948154
21
6.792427
31
0.0
0
LINE
8
GRANULAR
10
6.948154
20
6.792427
30
0.0
11
6.948154
21
3.194889
31
0.0
0
ENDSEC
0
EOF
