0
SECTION
2
ENTITIES
0
LINE
8
SUBGRADE
10
-53.418507
20
-20.900000
30
0.0
11
45.126380
21
-20.900000
31
0.0
0
LINE
8
SUBGRADE
10
45.126380
20
-20.900000
30
0.0
11
45.126380
21
-10.900000
31
0.0
0
LINE
8
SUBGRADE
10
45.126380
20
-10.900000
30
0.0
11
-53.418507
21
-10.900000
31
0.0
0
LINE
8
SUBGRADE
10
-53.418507
20
-10.900000
30
0.0
11
-53.418507
21
-20.900000
31
0.0
0
LINE
8
SAND
10
-43.080767
20
-10.900000
30
0.0
11
-41.418507
21
-9.791826
31
0.0
0
LINE
8
SAND
10
-41.418507
20
-9.791826
30
0.0
11
33.126380
21
-9.791826
31
0.0
0
LINE
8
SAND
10
33.126380
20
-9.791826
30
0.0
11
34.788641
21
-10.900000
31
0.0
0
LINE
8
SAND
10
34.788641
20
-10.900000
30
0.0
11
-43.080767
21
-10.900000
31
0.0
0
LINE
8
LINES
10
-43.080767
20
-10.900000
30
0.0
11
34.788641
21
-10.900000
31
0.0
0
LINE
8
CORE
10
-27.996458
20
-9.791826
30
0.0
11
-4.149715
21
2.131545
31
0.0
0
LINE
8
CORE
10
-4.149715
20
2.131545
30
0.0
11
3.838798
21
2.131545
31
0.0
0
LINE
8
CORE
10
3.838798
20
2.131545
30
0.0
11
21.723856
21
-9.791826
31
0.0
0
LINE
8
CORE
10
21.723856
20
-9.791826
30
0.0
11
-27.996458
21
-9.791826
31
0.0
0
LINE
8
UNDERLAYER
10
-31.300394
20
-9.791826
30
0.0
11
-4.498521
21
3.609110
31
0.0
0
LINE
8
UNDERLAYER
10
-4.498521
20
3.609110
30
0.0
11
4.286169
21
3.609110
31
0.0
0
LINE
8
UNDERLAYER
10
4.286169
20
3.609110
30
0.0
11
24.387574
21
-9.791826
31
0.0
0
LINE
8
UNDERLAYER
10
24.387574
20
-9.791826
30
0.0
11
21.723856
21
-9.791826
31
0.0
0
LINE
8
UNDERLAYER
10
21.723856
20
-9.791826
30
0.0
11
3.838798
21
2.131545
31
0.0
0
LINE
8
UNDERLAYER
10
3.838798
20
2.131545
30
0.0
11
-4.149715
21
2.131545
31
0.0
0
LINE
8
UNDERLAYER
10
-4.149715
20
2.131545
30
0.0
11
-27.996458
21
-9.791826
31
0.0
0
LINE
8
UNDERLAYER
10
-27.996458
20
-9.791826
30
0.0
11
-31.300394
21
-9.791826
31
0.0
0
LINE
8
ARMOUR
10
-38.418507
20
-9.791826
30
0.0
11
-5.250000
21
6.792427
31
0.0
0
LINE
8
ARMOUR
10
-5.250000
20
6.792427
30
0.0
11
5.250000
21
6.792427
31
0.0
0
LINE
8
ARMOUR
10
5.250000
20
6.792427
30
0.0
11
30.126380
21
-9.791826
31
0.0
0
LINE
8
ARMOUR
10
30.126380
20
-9.791826
30
0.0
11
24.387574
21
-9.791826
31
0.0
0
LINE
8
ARMOUR
10
24.387574
20
-9.791826
30
0.0
11
4.286169
21
3.609110
31
0.0
0
LINE
8
ARMOUR
10
4.286169
20
3.609110
30
0.0
11
-4.498521
21
3.609110
31
0.0
0
LINE
8
ARMOUR
10
-4.498521
20
3.609110
30
0.0
11
-31.300394
21
-9.791826
31
0.0
0
LINE
8
ARMOUR
10
-31.300394
20
-9.791826
30
0.0
11
-38.418507
21
-9.791826
31
0.0
0
LINE
8
TOE
10
-42.851202
20
-9.791826
30
0.0
11
-40.634854
21
-8.314261
31
0.0
0
LINE
8
TOE
10
-40.634854
20
-8.314261
30
0.0
11
-37.918507
21
-8.314261
31
0.0
0
LINE
8
TOE
10
-37.918507
20
-8.314261
30
0.0
11
-37.918507
21
-9.791826
31
0.0
0
LINE
8
TOE
10
-37.918507
20
-9.791826
30
0.0
11
-42.851202
21
-9.791826
31
0.0
0
LINE
8
TOE
10
34.559075
20
-9.791826
30
0.0
11
32.342728
21
-8.314261
31
0.0
0
LINE
8
TOE
10
32.342728
20
-8.314261
30
0.0
11
29.626380
21
-8.314261
31
0.0
0
LINE
8
TOE
10
29.626380
20
-8.314261
30
0.0
11
29.626380
21
-9.791826
31
0.0
0
LINE
8
TOE
10
29.626380
20
-9.791826
30
0.0
11
34.559075
21
-9.791826
31
0.0
0
LINE
8
CONCRETE
10
-5.250000
20
3.609110
30
0.0
11
4.250000
21
3.609110
31
0.0
0
LINE
8
CONCRETE
10
4.250000
20
3.609110
30
0.0
11
4.250000
21
6.792427
31
0.0
0
LINE
8
CONCRETE
10
4.250000
20
6.792427
30
0.0
11
-3.250000
21
6.792427
31
0.0
0
LINE
8
CONCRETE
10
-3.250000
20
6.792427
30
0.0
11
-3.250000
21
7.992427
31
0.0
0
LINE
8
CONCRETE
10
-3.250000
20
7.992427
30
0.0
11
-5.250000
21
7.992427
31
0.0
0
LINE
8
CONCRETE
10
-5.250000
20
7.992427
30
0.0
11
-5.250000
21
3.609110
31
0.0
0
LINE
8
GRANULAR
10
4.250000
20
3.609110
30
0.0
11
5.250000
21
3.609110
31
0.0
0
LINE
8
GRANULAR
10
5.250000
20
3.609110
30
0.0
11
5.250000
21
6.792427
31
0.0
0
LINE
8
GRANULAR
10
5.250000
20
6.792427
30
0.0
11
4.250000
21
6.792427
31
0.0
0
LINE
8
GRANULAR
10
4.250000
20
6.792427
30
0.0
11
4.250000
21
3.609110
31
0.0
0
LINE
8
SUBGRADE
10
-53.247367
20
-20.900000
30
0.0
11
44.998025
21
-20.900000
31
0.0
0
LINE
8
SUBGRADE
10
44.998025
20
-20.900000
30
0.0
11
44.998025
21
-10.900000
31
0.0
0
LINE
8
SUBGRADE
10
44.998025
20
-10.900000
30
0.0
11
-53.247367
21
-10.900000
31
0.0
0
LINE
8
SUBGRADE
10
-53.247367
20
-10.900000
30
0.0
11
-53.247367
21
-20.900000
31
0.0
0
LINE
8
SAND
10
-43.037982
20
-10.900000
30
0.0
11
-41.247367
21
-9.706256
31
0.0
0
LINE
8
SAND
10
-41.247367
20
-9.706256
30
0.0
11
32.998025
21
-9.706256
31
0.0
0
LINE
8
SAND
10
32.998025
20
-9.706256
30
0.0
11
34.788641
21
-10.900000
31
0.0
0
LINE
8
SAND
10
34.788641
20
-10.900000
30
0.0
11
-43.037982
21
-10.900000
31
0.0
0
LINE
8
LINES
10
-43.037982
20
-10.900000
30
0.0
11
34.788641
21
-10.900000
31
0.0
0
LINE
8
CORE
10
-27.020555
20
-9.706256
30
0.0
11
-4.064754
21
1.771644
31
0.0
0
LINE
8
CORE
10
-4.064754
20
1.771644
30
0.0
11
3.729829
21
1.771644
31
0.0
0
LINE
8
CORE
10
3.729829
20
1.771644
30
0.0
11
20.946680
21
-9.706256
31
0.0
0
LINE
8
CORE
10
20.946680
20
-9.706256
30
0.0
11
-27.020555
21
-9.706256
31
0.0
0
LINE
8
UNDERLAYER
10
-30.579611
20
-9.706256
30
0.0
11
-4.440494
21
3.363303
31
0.0
0
LINE
8
UNDERLAYER
10
-4.440494
20
3.363303
30
0.0
11
4.211745
21
3.363303
31
0.0
0
LINE
8
UNDERLAYER
10
4.211745
20
3.363303
30
0.0
11
23.816083
21
-9.706256
31
0.0
0
LINE
8
UNDERLAYER
10
23.816083
20
-9.706256
30
0.0
11
20.946680
21
-9.706256
31
0.0
0
LINE
8
UNDERLAYER
10
20.946680
20
-9.706256
30
0.0
11
3.729829
21
1.771644
31
0.0
0
LINE
8
UNDERLAYER
10
3.729829
20
1.771644
30
0.0
11
-4.064754
21
1.771644
31
0.0
0
LINE
8
UNDERLAYER
10
-4.064754
20
1.771644
30
0.0
11
-27.020555
21
-9.706256
31
0.0
0
LINE
8
UNDERLAYER
10
-27.020555
20
-9.706256
30
0.0
11
-30.579611
21
-9.706256
31
0.0
0
LINE
8
ARMOUR
10
-38.247367
20
-9.706256
30
0.0
11
-5.250000
21
6.792427
31
0.0
0
LINE
8
ARMOUR
10
-5.250000
20
6.792427
30
0.0
11
5.250000
21
6.792427
31
0.0
0
LINE
8
ARMOUR
10
5.250000
20
6.792427
30
0.0
11
29.998025
21
-9.706256
31
0.0
0
LINE
8
ARMOUR
10
29.998025
20
-9.706256
30
0.0
11
23.816083
21
-9.706256
31
0.0
0
LINE
8
ARMOUR
10
23.816083
20
-9.706256
30
0.0
11
4.211745
21
3.363303
31
0.0
0
LINE
8
ARMOUR
10
4.211745
20
3.363303
30
0.0
11
-4.440494
21
3.363303
31
0.0
0
LINE
8
ARMOUR
10
-4.440494
20
3.363303
30
0.0
11
-30.579611
21
-9.706256
31
0.0
0
LINE
8
ARMOUR
10
-30.579611
20
-9.706256
30
0.0
11
-38.247367
21
-9.706256
31
0.0
0
LINE
8
TOE
10
-43.022342
20
-9.706256
30
0.0
11
-40.634854
21
-8.114598
31
0.0
0
LINE
8
TOE
10
-40.634854
20
-8.114598
30
0.0
11
-37.747367
21
-8.114598
31
0.0
0
LINE
8
TOE
10
-37.747367
20
-8.114598
30
0.0
11
-37.747367
21
-9.706256
31
0.0
0
LINE
8
TOE
10
-37.747367
20
-9.706256
30
0.0
11
-43.022342
21
-9.706256
31
0.0
0
LINE
8
TOE
10
34.773000
20
-9.706256
30
0.0
11
32.385513
21
-8.114598
31
0.0
0
LINE
8
TOE
10
32.385513
20
-8.114598
30
0.0
11
29.498025
21
-8.114598
31
0.0
0
LINE
8
TOE
10
29.498025
20
-8.114598
30
0.0
11
29.498025
21
-9.706256
31
0.0
0
LINE
8
TOE
10
29.498025
20
-9.706256
30
0.0
11
34.773000
21
-9.706256
31
0.0
0
LINE
8
CONCRETE
10
-5.250000
20
3.363303
30
0.0
11
4.250000
21
3.363303
31
0.0
0
LINE
8
CONCRETE
10
4.250000
20
3.363303
30
0.0
11
4.250000
21
6.792427
31
0.0
0
LINE
8
CONCRETE
10
4.250000
20
6.792427
30
0.0
11
-3.250000
21
6.792427
31
0.0
0
LINE
8
CONCRETE
10
-3.250000
20
6.792427
30
0.0
11
-3.250000
21
7.992427
31
0.0
0
LINE
8
CONCRETE
10
-3.250000
20
7.992427
30
0.0
11
-5.250000
21
7.992427
31
0.0
0
LINE
8
CONCRETE
10
-5.250000
20
7.992427
30
0.0
11
-5.250000
21
3.363303
31
0.0
0
LINE
8
GRANULAR
10
4.250000
20
3.363303
30
0.0
11
5.250000
21
3.363303
31
0.0
0
LINE
8
GRANULAR
10
5.250000
20
3.363303
30
0.0
11
5.250000
21
6.792427
31
0.0
0
LINE
8
GRANULAR
10
5.250000
20
6.792427
30
0.0
11
4.250000
21
6.792427
31
0.0
0
LINE
8
GRANULAR
10
4.250000
20
6.792427
30
0.0
11
4.250000
21
3.363303
31
0.0
0
ENDSEC
0
EOF
