0
SECTION
2
ENTITIES
0
LINE
8
SUBGRADE
10
-321.590099
20
-41.500000
30
0.0
11
321.590099
21
-41.500000
31
0.0
0
LINE
8
SUBGRADE
10
321.590099
20
-41.500000
30
0.0
11
321.590099
21
-11.500000
31
0.0
0
LINE
8
SUBGRADE
10
321.590099
20
-11.500000
30
0.0
11
231.590099
21
-11.500000
31
0.0
0
LINE
8
SUBGRADE
10
231.590099
20
-11.500000
30
0.0
11
207.260000
21
-16.366020
31
0.0
0
LINE
8
SUBGRADE
10
207.260000
20
-16.366020
30
0.0
11
-207.260000
21
-16.366020
31
0.0
0
LINE
8
SUBGRADE
10
-207.260000
20
-16.366020
30
0.0
11
-231.590099
21
-11.500000
31
0.0
0
LINE
8
SUBGRADE
10
-231.590099
20
-11.500000
30
0.0
11
-321.590099
21
-11.500000
31
0.0
0
LINE
8
SUBGRADE
10
-321.590099
20
-11.500000
30
0.0
11
-321.590099
21
-41.500000
31
0.0
0
LINE
8
LINES
10
-231.590099
20
-11.500000
30
0.0
11
-207.260000
21
-16.366020
31
0.0
0
LINE
8
LINES
10
-207.260000
20
-16.366020
30
0.0
11
207.260000
21
-16.366020
31
0.0
0
LINE
8
LINES
10
207.260000
20
-16.366020
30
0.0
11
231.590099
21
-11.500000
31
0.0
0
LINE
8
PAVEMENT
10
-129.176000
20
9.876000
30
0.0
11
-127.730000
21
1.200000
31
0.0
0
LINE
8
PAVEMENT
10
-127.730000
20
1.200000
30
0.0
11
-127.730000
21
-4.624000
31
0.0
0
LINE
8
PAVEMENT
10
-127.730000
20
-4.624000
30
0.0
11
-119.054000
21
-13.300000
31
0.0
0
LINE
8
PAVEMENT
10
-119.054000
20
-13.300000
30
0.0
11
-88.206000
21
-13.300000
31
0.0
0
LINE
8
PAVEMENT
10
-88.206000
20
-13.300000
30
0.0
11
-79.530000
21
-4.624000
31
0.0
0
LINE
8
PAVEMENT
10
-79.530000
20
-4.624000
30
0.0
11
-79.530000
21
1.200000
31
0.0
0
LINE
8
PAVEMENT
10
-79.530000
20
1.200000
30
0.0
11
-78.084000
21
9.876000
31
0.0
0
LINE
8
PAVEMENT
10
-78.084000
20
9.876000
30
0.0
11
-129.176000
21
9.876000
31
0.0
0
LINE
8
PAVEMENT
10
78.084000
20
9.876000
30
0.0
11
79.530000
21
1.200000
31
0.0
0
LINE
8
PAVEMENT
10
79.530000
20
1.200000
30
0.0
11
79.530000
21
-4.624000
31
0.0
0
LINE
8
PAVEMENT
10
79.530000
20
-4.624000
30
0.0
11
88.206000
21
-13.300000
31
0.0
0
LINE
8
PAVEMENT
10
88.206000
20
-13.300000
30
0.0
11
119.054000
21
-13.300000
31
0.0
0
LINE
8
PAVEMENT
10
119.054000
20
-13.300000
30
0.0
11
127.730000
21
-4.624000
31
0.0
0
LINE
8
PAVEMENT
10
127.730000
20
-4.624000
30
0.0
11
127.730000
21
1.200000
31
0.0
0
LINE
8
PAVEMENT
10
127.730000
20
1.200000
30
0.0
11
129.176000
21
9.876000
31
0.0
0
LINE
8
PAVEMENT
10
129.176000
20
9.876000
30
0.0
11
78.084000
21
9.876000
31
0.0
0
LINE
8
PAVEMENT
10
-7.760200
20
-13.300000
30
0.0
11
7.760200
21
-13.300000
31
0.0
0
LINE
8
PAVEMENT
10
7.760200
20
-13.300000
30
0.0
11
7.760200
21
-12.000000
31
0.0
0
LINE
8
PAVEMENT
10
7.760200
20
-12.000000
30
0.0
11
-7.760200
21
-12.000000
31
0.0
0
LINE
8
PAVEMENT
10
-7.760200
20
-12.000000
30
0.0
11
-7.760200
21
-13.300000
31
0.0
0
LINE
8
CORE
10
-8.435000
20
-13.666020
30
0.0
11
8.435000
21
-13.666020
31
0.0
0
LINE
8
CORE
10
8.435000
20
-13.666020
30
0.0
11
8.435000
21
-13.300000
31
0.0
0
LINE
8
CORE
10
8.435000
20
-13.300000
30
0.0
11
-8.435000
21
-13.300000
31
0.0
0
LINE
8
CORE
10
-8.435000
20
-13.300000
30
0.0
11
-8.435000
21
-13.666020
31
0.0
0
LINE
8
GRANULAR
10
-8.435000
20
-14.566020
30
0.0
11
8.435000
21
-14.566020
31
0.0
0
LINE
8
GRANULAR
10
8.435000
20
-14.566020
30
0.0
11
8.435000
21
-13.666020
31
0.0
0
LINE
8
GRANULAR
10
8.435000
20
-13.666020
30
0.0
11
-8.435000
21
-13.666020
31
0.0
0
LINE
8
GRANULAR
10
-8.435000
20
-13.666020
30
0.0
11
-8.435000
21
-14.566020
31
0.0
0
LINE
8
BLINDING
10
-8.435000
20
-15.366020
30
0.0
11
8.435000
21
-15.366020
31
0.0
0
LINE
8
BLINDING
10
8.435000
20
-15.366020
30
0.0
11
8.435000
21
-14.566020
31
0.0
0
LINE
8
BLINDING
10
8.435000
20
-14.566020
30
0.0
11
-8.435000
21
-14.566020
31
0.0
0
LINE
8
BLINDING
10
-8.435000
20
-14.566020
30
0.0
11
-8.435000
21
-15.366020
31
0.0
0
LINE
8
ROCK_FILL
10
-8.435000
20
-15.666020
30
0.0
11
8.435000
21
-15.666020
31
0.0
0
LINE
8
ROCK_FILL
10
8.435000
20
-15.666020
30
0.0
11
8.435000
21
-15.366020
31
0.0
0
LINE
8
ROCK_FILL
10
8.435000
20
-15.366020
30
0.0
11
-8.435000
21
-15.366020
31
0.0
0
LINE
8
ROCK_FILL
10
-8.435000
20
-15.366020
30
0.0
11
-8.435000
21
-15.666020
31
0.0
0
LINE
8
CONCRETE
10
-8.435000
20
-15.966020
30
0.0
11
8.435000
21
-15.966020
31
0.0
0
LINE
8
CONCRETE
10
8.435000
20
-15.966020
30
0.0
11
8.435000
21
-15.666020
31
0.0
0
LINE
8
CONCRETE
10
8.435000
20
-15.666020
30
0.0
11
-8.435000
21
-15.666020
31
0.0
0
LINE
8
CONCRETE
10
-8.435000
20
-15.666020
30
0.0
11
-8.435000
21
-15.966020
31
0.0
0
LINE
8
REINFORCED
10
-8.435000
20
-16.166020
30
0.0
11
8.435000
21
-16.166020
31
0.0
0
LINE
8
REINFORCED
10
8.435000
20
-16.166020
30
0.0
11
8.435000
21
-15.966020
31
0.0
0
LINE
8
REINFORCED
10
8.435000
20
-15.966020
30
0.0
11
-8.435000
21
-15.966020
31
0.0
0
LINE
8
REINFORCED
10
-8.435000
20
-15.966020
30
0.0
11
-8.435000
21
-16.166020
31
0.0
0
LINE
8
SUBGRADE
10
-8.435000
20
-16.366020
30
0.0
11
8.435000
21
-16.366020
31
0.0
0
LINE
8
SUBGRADE
10
8.435000
20
-16.366020
30
0.0
11
8.435000
21
-16.166020
31
0.0
0
LINE
8
SUBGRADE
10
8.435000
20
-16.166020
30
0.0
11
-8.435000
21
-16.166020
31
0.0
0
LINE
8
SUBGRADE
10
-8.435000
20
-16.166020
30
0.0
11
-8.435000
21
-16.366020
31
0.0
0
LINE
8
SUBGRADE
10
-8.435000
20
-18.366020
30
0.0
11
8.435000
21
-18.366020
31
0.0
0
LINE
8
SUBGRADE
10
8.435000
20
-18.366020
30
0.0
11
8.435000
21
-16.366020
31
0.0
0
LINE
8
SUBGRADE
10
8.435000
20
-16.366020
30
0.0
11
-8.435000
21
-16.366020
31
0.0
0
LINE
8
SUBGRADE
10
-8.435000
20
-16.366020
30
0.0
11
-8.435000
21
-18.366020
31
0.0
0
LINE
8
LINES
10
-8.435000
20
-16.366020
30
0.0
11
8.435000
21
-16.366020
31
0.0
0
ENDSEC
0
EOF
