0
SECTION
2
ENTITIES
0
LINE
8
SUBGRADE
10
-24.000000
20
-13.000000
30
0.0
11
19.480217
21
-13.000000
31
0.0
0
LINE
8
SUBGRADE
10
19.480217
20
-13.000000
30
0.0
11
19.480217
21
-1.000000
31
0.0
0
LINE
8
SUBGRADE
10
19.480217
20
-1.000000
30
0.0
11
-24.000000
21
-1.000000
31
0.0
0
LINE
8
SUBGRADE
10
-24.000000
20
-1.000000
30
0.0
11
-24.000000
21
-13.000000
31
0.0
0
LINE
8
TOE
10
-2.941952
20
-1.000000
30
0.0
11
-2.000000
21
-0.372032
31
0.0
0
LINE
8
TOE
10
-2.000000
20
-0.372032
30
0.0
11
0.000000
21
-0.372032
31
0.0
0
LINE
8
TOE
10
0.000000
20
-0.372032
30
0.0
11
0.000000
21
-1.000000
31
0.0
0
LINE
8
TOE
10
0.000000
20
-1.000000
30
0.0
11
-2.941952
21
-1.000000
31
0.0
0
LINE
8
BLINDING
10
0.000000
20
-3.153891
30
0.0
11
10.480217
21
-3.153891
31
0.0
0
LINE
8
BLINDING
10
10.480217
20
-3.153891
30
0.0
11
10.480217
21
-3.003891
31
0.0
0
LINE
8
BLINDING
10
10.480217
20
-3.003891
30
0.0
11
0.000000
21
-3.003891
31
0.0
0
LINE
8
BLINDING
10
0.000000
20
-3.003891
30
0.0
11
0.000000
21
-3.153891
31
0.0
0
LINE
8
REINFORCED
10
0.000000
20
-3.003891
30
0.0
11
10.480217
21
-3.003891
31
0.0
0
LINE
8
REINFORCED
10
10.480217
20
-3.003891
30
0.0
11
10.480217
21
-2.003891
31
0.0
0
LINE
8
REINFORCED
10
10.480217
20
-2.003891
30
0.0
11
0.000000
21
-2.003891
31
0.0
0
LINE
8
REINFORCED
10
0.000000
20
-2.003891
30
0.0
11
0.000000
21
-3.003891
31
0.0
0
LINE
8
REINFORCED
10
0.000000
20
-2.003891
30
0.0
11
1.000000
21
-2.003891
31
0.0
0
LINE
8
REINFORCED
10
1.000000
20
-2.003891
30
0.0
11
1.000000
21
6.356542
31
0.0
0
LINE
8
REINFORCED
10
1.000000
20
6.356542
30
0.0
11
0.000000
21
6.356542
31
0.0
0
LINE
8
REINFORCED
10
0.000000
20
6.356542
30
0.0
11
0.000000
21
-2.003891
31
0.0
0
LINE
8
GRANULAR
10
1.000000
20
-2.003891
30
0.0
11
19.480217
21
-2.003891
31
0.0
0
LINE
8
GRANULAR
10
19.480217
20
-2.003891
30
0.0
11
19.480217
21
5.056542
31
0.0
0
LINE
8
GRANULAR
10
19.480217
20
5.056542
30
0.0
11
1.000000
21
5.056542
31
0.0
0
LINE
8
GRANULAR
10
1.000000
20
5.056542
30
0.0
11
1.000000
21
-2.003891
31
0.0
0
LINE
8
PAVEMENT
10
1.000000
20
5.056542
30
0.0
11
19.480217
21
5.056542
31
0.0
0
LINE
8
PAVEMENT
10
19.480217
20
5.056542
30
0.0
11
19.480217
21
5.356542
31
0.0
0
LINE
8
PAVEMENT
10
19.480217
20
5.356542
30
0.0
11
1.000000
21
5.356542
31
0.0
0
LINE
8
PAVEMENT
10
1.000000
20
5.356542
30
0.0
11
1.000000
21
5.056542
31
0.0
0
LINE
8
LINES
10
-13.200000
20
-1.000000
30
0.0
11
-13.124114
21
-1.001396
31
0.0
0
LINE
8
LINES
10
-13.124114
20
-1.001396
30
0.0
11
-13.048228
21
-1.005581
31
0.0
0
LINE
8
LINES
10
-13.048228
20
-1.005581
30
0.0
11
-12.972341
21
-1.012543
31
0.0
0
LINE
8
LINES
10
-12.972341
20
-1.012543
30
0.0
11
-12.896455
21
-1.022263
31
0.0
0
LINE
8
LINES
10
-12.896455
20
-1.022263
30
0.0
11
-12.820569
21
-1.034713
31
0.0
0
LINE
8
LINES
10
-12.820569
20
-1.034713
30
0.0
11
-12.744683
21
-1.049859
31
0.0
0
LINE
8
LINES
10
-12.744683
20
-1.049859
30
0.0
11
-12.668797
21
-1.067659
31
0.0
0
LINE
8
LINES
10
-12.668797
20
-1.067659
30
0.0
11
-12.592910
21
-1.088063
31
0.0
0
LINE
8
LINES
10
-12.592910
20
-1.088063
30
0.0
11
-12.517024
21
-1.111014
31
0.0
0
LINE
8
LINES
10
-12.517024
20
-1.111014
30
0.0
11
-12.441138
21
-1.136448
31
0.0
0
LINE
8
LINES
10
-12.441138
20
-1.136448
30
0.0
11
-12.365252
21
-1.164294
31
0.0
0
LINE
8
LINES
10
-12.365252
20
-1.164294
30
0.0
11
-12.289366
21
-1.194475
31
0.0
0
LINE
8
LINES
10
-12.289366
20
-1.194475
30
0.0
11
-12.213479
21
-1.226907
31
0.0
0
LINE
8
LINES
10
-12.213479
20
-1.226907
30
0.0
11
-12.137593
21
-1.261499
31
0.0
0
LINE
8
LINES
10
-12.137593
20
-1.261499
30
0.0
11
-12.061707
21
-1.298154
31
0.0
0
LINE
8
LINES
10
-12.061707
20
-1.298154
30
0.0
11
-11.985821
21
-1.336772
31
0.0
0
LINE
8
LINES
10
-11.985821
20
-1.336772
30
0.0
11
-11.909935
21
-1.377243
31
0.0
0
LINE
8
LINES
10
-11.909935
20
-1.377243
30
0.0
11
-11.834048
21
-1.419455
31
0.0
0
LINE
8
LINES
10
-11.834048
20
-1.419455
30
0.0
11
-11.758162
21
-1.463291
31
0.0
0
LINE
8
LINES
10
-11.758162
20
-1.463291
30
0.0
11
-11.682276
21
-1.508628
31
0.0
0
LINE
8
LINES
10
-11.682276
20
-1.508628
30
0.0
11
-11.606390
21
-1.555340
31
0.0
0
LINE
8
LINES
10
-11.606390
20
-1.555340
30
0.0
11
-11.530503
21
-1.603297
31
0.0
0
LINE
8
LINES
10
-11.530503
20
-1.603297
30
0.0
11
-11.454617
21
-1.652365
31
0.0
0
LINE
8
LINES
10
-11.454617
20
-1.652365
30
0.0
11
-11.378731
21
-1.702407
31
0.0
0
LINE
8
LINES
10
-11.378731
20
-1.702407
30
0.0
11
-11.302845
21
-1.753284
31
0.0
0
LINE
8
LINES
10
-11.302845
20
-1.753284
30
0.0
11
-11.226959
21
-1.804855
31
0.0
0
LINE
8
LINES
10
-11.226959
20
-1.804855
30
0.0
11
-11.151072
21
-1.856974
31
0.0
0
LINE
8
LINES
10
-11.151072
20
-1.856974
30
0.0
11
-11.075186
21
-1.909498
31
0.0
0
LINE
8
LINES
10
-11.075186
20
-1.909498
30
0.0
11
-10.999300
21
-1.962279
31
0.0
0
LINE
8
LINES
10
-10.999300
20
-1.962279
30
0.0
11
-10.923414
21
-2.015171
31
0.0
0
LINE
8
LINES
10
-10.923414
20
-2.015171
30
0.0
11
-10.847528
21
-2.068026
31
0.0
0
LINE
8
LINES
10
-10.847528
20
-2.068026
30
0.0
11
-10.771641
21
-2.120697
31
0.0
0
LINE
8
LINES
10
-10.771641
20
-2.120697
30
0.0
11
-10.695755
21
-2.173037
31
0.0
0
LINE
8
LINES
10
-10.695755
20
-2.173037
30
0.0
11
-10.619869
21
-2.224900
31
0.0
0
LINE
8
LINES
10
-10.619869
20
-2.224900
30
0.0
11
-10.543983
21
-2.276141
31
0.0
0
LINE
8
LINES
10
-10.543983
20
-2.276141
30
0.0
11
-10.468097
21
-2.326618
31
0.0
0
LINE
8
LINES
10
-10.468097
20
-2.326618
30
0.0
11
-10.392210
21
-2.376191
31
0.0
0
LINE
8
LINES
10
-10.392210
20
-2.376191
30
0.0
11
-10.316324
21
-2.424720
31
0.0
0
LINE
8
LINES
10
-10.316324
20
-2.424720
30
0.0
11
-10.240438
21
-2.472071
31
0.0
0
LINE
8
LINES
10
-10.240438
20
-2.472071
30
0.0
11
-10.164552
21
-2.518112
31
0.0
0
LINE
8
LINES
10
-10.164552
20
-2.518112
30
0.0
11
-10.088666
21
-2.562714
31
0.0
0
LINE
8
LINES
10
-10.088666
20
-2.562714
30
0.0
11
-10.012779
21
-2.605753
31
0.0
0
LINE
8
LINES
10
-10.012779
20
-2.605753
30
0.0
11
-9.936893
21
-2.647109
31
0.0
0
LINE
8
LINES
10
-9.936893
20
-2.647109
30
0.0
11
-9.861007
21
-2.686667
31
0.0
0
LINE
8
LINES
10
-9.861007
20
-2.686667
30
0.0
11
-9.785121
21
-2.724316
31
0.0
0
LINE
8
LINES
10
-9.785121
20
-2.724316
30
0.0
11
-9.709235
21
-2.759952
31
0.0
0
LINE
8
LINES
10
-9.709235
20
-2.759952
30
0.0
11
-9.633348
21
-2.793476
31
0.0
0
LINE
8
LINES
10
-9.633348
20
-2.793476
30
0.0
11
-9.557462
21
-2.824793
31
0.0
0
LINE
8
LINES
10
-9.557462
20
-2.824793
30
0.0
11
-9.481576
21
-2.853817
31
0.0
0
LINE
8
LINES
10
-9.481576
20
-2.853817
30
0.0
11
-9.405690
21
-2.880467
31
0.0
0
LINE
8
LINES
10
-9.405690
20
-2.880467
30
0.0
11
-9.329804
21
-2.904667
31
0.0
0
LINE
8
LINES
10
-9.329804
20
-2.904667
30
0.0
11
-9.253917
21
-2.926352
31
0.0
0
LINE
8
LINES
10
-9.253917
20
-2.926352
30
0.0
11
-9.178031
21
-2.945461
31
0.0
0
LINE
8
LINES
10
-9.178031
20
-2.945461
30
0.0
11
-9.102145
21
-2.961939
31
0.0
0
LINE
8
LINES
10
-9.102145
20
-2.961939
30
0.0
11
-9.026259
21
-2.975742
31
0.0
0
LINE
8
LINES
10
-9.026259
20
-2.975742
30
0.0
11
-8.950372
21
-2.986831
31
0.0
0
LINE
8
LINES
10
-8.950372
20
-2.986831
30
0.0
11
-8.874486
21
-2.995175
31
0.0
0
LINE
8
LINES
10
-8.874486
20
-2.995175
30
0.0
11
-8.798600
21
-3.000751
31
0.0
0
LINE
8
LINES
10
-8.798600
20
-3.000751
30
0.0
11
-8.722714
21
-3.003542
31
0.0
0
LINE
8
LINES
10
-8.722714
20
-3.003542
30
0.0
11
-8.646828
21
-3.003542
31
0.0
0
LINE
8
LINES
10
-8.646828
20
-3.003542
30
0.0
11
-8.570941
21
-3.000751
31
0.0
0
LINE
8
LINES
10
-8.570941
20
-3.000751
30
0.0
11
-8.495055
21
-2.995175
31
0.0
0
LINE
8
LINES
10
-8.495055
20
-2.995175
30
0.0
11
-8.419169
21
-2.986831
31
0.0
0
LINE
8
LINES
10
-8.419169
20
-2.986831
30
0.0
11
-8.343283
21
-2.975742
31
0.0
0
LINE
8
LINES
10
-8.343283
20
-2.975742
30
0.0
11
-8.267397
21
-2.961939
31
0.0
0
LINE
8
LINES
10
-8.267397
20
-2.961939
30
0.0
11
-8.191510
21
-2.945461
31
0.0
0
LINE
8
LINES
10
-8.191510
20
-2.945461
30
0.0
11
-8.115624
21
-2.926352
31
0.0
0
LINE
8
LINES
10
-8.115624
20
-2.926352
30
0.0
11
-8.039738
21
-2.904667
31
0.0
0
LINE
8
LINES
10
-8.039738
20
-2.904667
30
0.0
11
-7.963852
21
-2.880467
31
0.0
0
LINE
8
LINES
10
-7.963852
20
-2.880467
30
0.0
11
-7.887966
21
-2.853817
31
0.0
0
LINE
8
LINES
10
-7.887966
20
-2.853817
30
0.0
11
-7.812079
21
-2.824793
31
0.0
0
LINE
8
LINES
10
-7.812079
20
-2.824793
30
0.0
11
-7.736193
21
-2.793476
31
0.0
0
LINE
8
LINES
10
-7.736193
20
-2.793476
30
0.0
11
-7.660307
21
-2.759952
31
0.0
0
LINE
8
LINES
10
-7.660307
20
-2.759952
30
0.0
11
-7.584421
21
-2.724316
31
0.0
0
LINE
8
LINES
10
-7.584421
20
-2.724316
30
0.0
11
-7.508535
21
-2.686667
31
0.0
0
LINE
8
LINES
10
-7.508535
20
-2.686667
30
0.0
11
-7.432648
21
-2.647109
31
0.0
0
LINE
8
LINES
10
-7.432648
20
-2.647109
30
0.0
11
-7.356762
21
-2.605753
31
0.0
0
LINE
8
LINES
10
-7.356762
20
-2.605753
30
0.0
11
-7.280876
21
-2.562714
31
0.0
0
LINE
8
LINES
10
-7.280876
20
-2.562714
30
0.0
11
-7.204990
21
-2.518112
31
0.0
0
LINE
8
LINES
10
-7.204990
20
-2.518112
30
0.0
11
-7.129104
21
-2.472071
31
0.0
0
LINE
8
LINES
10
-7.129104
20
-2.472071
30
0.0
11
-7.053217
21
-2.424720
31
0.0
0
LINE
8
LINES
10
-7.053217
20
-2.424720
30
0.0
11
-6.977331
21
-2.376191
31
0.0
0
LINE
8
LINES
10
-6.977331
20
-2.376191
30
0.0
11
-6.901445
21
-2.326618
31
0.0
0
LINE
8
LINES
10
-6.901445
20
-2.326618
30
0.0
11
-6.825559
21
-2.276141
31
0.0
0
LINE
8
LINES
10
-6.825559
20
-2.276141
30
0.0
11
-6.749673
21
-2.224900
31
0.0
0
LINE
8
LINES
10
-6.749673
20
-2.224900
30
0.0
11
-6.673786
21
-2.173037
31
0.0
0
LINE
8
LINES
10
-6.673786
20
-2.173037
30
0.0
11
-6.597900
21
-2.120697
31
0.0
0
LINE
8
LINES
10
-6.597900
20
-2.120697
30
0.0
11
-6.522014
21
-2.068026
31
0.0
0
LINE
8
LINES
10
-6.522014
20
-2.068026
30
0.0
11
-6.446128
21
-2.015171
31
0.0
0
LINE
8
LINES
10
-6.446128
20
-2.015171
30
0.0
11
-6.370242
21
-1.962279
31
0.0
0
LINE
8
LINES
10
-6.370242
20
-1.962279
30
0.0
11
-6.294355
21
-1.909498
31
0.0
0
LINE
8
LINES
10
-6.294355
20
-1.909498
30
0.0
11
-6.218469
21
-1.856974
31
0.0
0
LINE
8
LINES
10
-6.218469
20
-1.856974
30
0.0
11
-6.142583
21
-1.804855
31
0.0
0
LINE
8
LINES
10
-6.142583
20
-1.804855
30
0.0
11
-6.066697
21
-1.753284
31
0.0
0
LINE
8
LINES
10
-6.066697
20
-1.753284
30
0.0
11
-5.990810
21
-1.702407
31
0.0
0
LINE
8
LINES
10
-5.990810
20
-1.702407
30
0.0
11
-5.914924
21
-1.652365
31
0.0
0
LINE
8
LINES
10
-5.914924
20
-1.652365
30
0.0
11
-5.839038
21
-1.603297
31
0.0
0
LINE
8
LINES
10
-5.839038
20
-1.603297
30
0.0
11
-5.763152
21
-1.555340
31
0.0
0
LINE
8
LINES
10
-5.763152
20
-1.555340
30
0.0
11
-5.687266
21
-1.508628
31
0.0
0
LINE
8
LINES
10
-5.687266
20
-1.508628
30
0.0
11
-5.611379
21
-1.463291
31
0.0
0
LINE
8
LINES
10
-5.611379
20
-1.463291
30
0.0
11
-5.535493
21
-1.419455
31
0.0
0
LINE
8
LINES
10
-5.535493
20
-1.419455
30
0.0
11
-5.459607
21
-1.377243
31
0.0
0
LINE
8
LINES
10
-5.459607
20
-1.377243
30
0.0
11
-5.383721
21
-1.336772
31
0.0
0
LINE
8
LINES
10
-5.383721
20
-1.336772
30
0.0
11
-5.307835
21
-1.298154
31
0.0
0
LINE
8
LINES
10
-5.307835
20
-1.298154
30
0.0
11
-5.231948
21
-1.261499
31
0.0
0
LINE
8
LINES
10
-5.231948
20
-1.261499
30
0.0
11
-5.156062
21
-1.226907
31
0.0
0
LINE
8
LINES
10
-5.156062
20
-1.226907
30
0.0
11
-5.080176
21
-1.194475
31
0.0
0
LINE
8
LINES
10
-5.080176
20
-1.194475
30
0.0
11
-5.004290
21
-1.164294
31
0.0
0
LINE
8
LINES
10
-5.004290
20
-1.164294
30
0.0
11
-4.928404
21
-1.136448
31
0.0
0
LINE
8
LINES
10
-4.928404
20
-1.136448
30
0.0
11
-4.852517
21
-1.111014
31
0.0
0
LINE
8
LINES
10
-4.852517
20
-1.111014
30
0.0
11
-4.776631
21
-1.088063
31
0.0
0
LINE
8
LINES
10
-4.776631
20
-1.088063
30
0.0
11
-4.700745
21
-1.067659
31
0.0
0
LINE
8
LINES
10
-4.700745
20
-1.067659
30
0.0
11
-4.624859
21
-1.049859
31
0.0
0
LINE
8
LINES
10
-4.624859
20
-1.049859
30
0.0
11
-4.548973
21
-1.034713
31
0.0
0
LINE
8
LINES
10
-4.548973
20
-1.034713
30
0.0
11
-4.473086
21
-1.022263
31
0.0
0
LINE
8
LINES
10
-4.473086
20
-1.022263
30
0.0
11
-4.397200
21
-1.012543
31
0.0
0
LINE
8
LINES
10
-4.397200
20
-1.012543
30
0.0
11
-4.321314
21
-1.005581
31
0.0
0
LINE
8
LINES
10
-4.321314
20
-1.005581
30
0.0
11
-4.245428
21
-1.001396
31
0.0
0
LINE
8
LINES
10
-4.245428
20
-1.001396
30
0.0
11
-4.169542
21
-1.000000
31
0.0
0
ENDSEC
0
EOF
