0
SECTION
2
ENTITIES
0
LINE
8
SUBGRADE
10
-24.000000
20
-17.600000
30
0.0
11
21.150849
21
-17.600000
31
0.0
0
LINE
8
SUBGRADE
10
21.150849
20
-17.600000
30
0.0
11
21.150849
21
-5.600000
31
0.0
0
LINE
8
SUBGRADE
10
21.150849
20
-5.600000
30
0.0
11
-24.000000
21
-5.600000
31
0.0
0
LINE
8
SUBGRADE
10
-24.000000
20
-5.600000
30
0.0
11
-24.000000
21
-17.600000
31
0.0
0
LINE
8
TOE
10
-2.819608
20
-5.600000
30
0.0
11
-2.000000
21
-5.053595
31
0.0
0
LINE
8
TOE
10
-2.000000
20
-5.053595
30
0.0
11
0.000000
21
-5.053595
31
0.0
0
LINE
8
TOE
10
0.000000
20
-5.053595
30
0.0
11
0.000000
21
-5.600000
31
0.0
0
LINE
8
TOE
10
0.000000
20
-5.600000
30
0.0
11
-2.819608
21
-5.600000
31
0.0
0
LINE
8
BLINDING
10
0.000000
20
-7.260918
30
0.0
11
12.150849
21
-7.260918
31
0.0
0
LINE
8
BLINDING
10
12.150849
20
-7.260918
30
0.0
11
12.150849
21
-7.110918
31
0.0
0
LINE
8
BLINDING
10
12.150849
20
-7.110918
30
0.0
11
0.000000
21
-7.110918
31
0.0
0
LINE
8
BLINDING
10
0.000000
20
-7.110918
30
0.0
11
0.000000
21
-7.260918
31
0.0
0
LINE
8
REINFORCED
10
0.000000
20
-7.110918
30
0.0
11
12.150849
21
-7.110918
31
0.0
0
LINE
8
REINFORCED
10
12.150849
20
-7.110918
30
0.0
11
12.150849
21
-5.910918
31
0.0
0
LINE
8
REINFORCED
10
12.150849
20
-5.910918
30
0.0
11
0.000000
21
-5.910918
31
0.0
0
LINE
8
REINFORCED
10
0.000000
20
-5.910918
30
0.0
11
0.000000
21
-7.110918
31
0.0
0
LINE
8
REINFORCED
10
0.000000
20
-5.910918
30
0.0
11
1.000000
21
-5.910918
31
0.0
0
LINE
8
REINFORCED
10
1.000000
20
-5.910918
30
0.0
11
1.000000
21
8.590779
31
0.0
0
LINE
8
REINFORCED
10
1.000000
20
8.590779
30
0.0
11
0.000000
21
8.590779
31
0.0
0
LINE
8
REINFORCED
10
0.000000
20
8.590779
30
0.0
11
0.000000
21
-5.910918
31
0.0
0
LINE
8
GRANULAR
10
1.000000
20
-5.910918
30
0.0
11
21.150849
21
-5.910918
31
0.0
0
LINE
8
GRANULAR
10
21.150849
20
-5.910918
30
0.0
11
21.150849
21
7.290779
31
0.0
0
LINE
8
GRANULAR
10
21.150849
20
7.290779
30
0.0
11
1.000000
21
7.290779
31
0.0
0
LINE
8
GRANULAR
10
1.000000
20
7.290779
30
0.0
11
1.000000
21
-5.910918
31
0.0
0
LINE
8
PAVEMENT
10
1.000000
20
7.290779
30
0.0
11
21.150849
21
7.290779
31
0.0
0
LINE
8
PAVEMENT
10
21.150849
20
7.290779
30
0.0
11
21.150849
21
7.590779
31
0.0
0
LINE
8
PAVEMENT
10
21.150849
20
7.590779
30
0.0
11
1.000000
21
7.590779
31
0.0
0
LINE
8
PAVEMENT
10
1.000000
20
7.590779
30
0.0
11
1.000000
21
7.290779
31
0.0
0
LINE
8
LINES
10
-13.200000
20
-5.600000
30
0.0
11
-13.111261
21
-5.601053
31
0.0
0
LINE
8
LINES
10
-13.111261
20
-5.601053
30
0.0
11
-13.022521
21
-5.604208
31
0.0
0
LINE
8
LINES
10
-13.022521
20
-5.604208
30
0.0
11
-12.933782
21
-5.609458
31
0.0
0
LINE
8
LINES
10
-12.933782
20
-5.609458
30
0.0
11
-12.845042
21
-5.616786
31
0.0
0
LINE
8
LINES
10
-12.845042
20
-5.616786
30
0.0
11
-12.756303
21
-5.626174
31
0.0
0
LINE
8
LINES
10
-12.756303
20
-5.626174
30
0.0
11
-12.667563
21
-5.637594
31
0.0
0
LINE
8
LINES
10
-12.667563
20
-5.637594
30
0.0
11
-12.578824
21
-5.651014
31
0.0
0
LINE
8
LINES
10
-12.578824
20
-5.651014
30
0.0
11
-12.490084
21
-5.666399
31
0.0
0
LINE
8
LINES
10
-12.490084
20
-5.666399
30
0.0
11
-12.401345
21
-5.683704
31
0.0
0
LINE
8
LINES
10
-12.401345
20
-5.683704
30
0.0
11
-12.312605
21
-5.702881
31
0.0
0
LINE
8
LINES
10
-12.312605
20
-5.702881
30
0.0
11
-12.223866
21
-5.723877
31
0.0
0
LINE
8
LINES
10
-12.223866
20
-5.723877
30
0.0
11
-12.135126
21
-5.746633
31
0.0
0
LINE
8
LINES
10
-12.135126
20
-5.746633
30
0.0
11
-12.046387
21
-5.771086
31
0.0
0
LINE
8
LINES
10
-12.046387
20
-5.771086
30
0.0
11
-11.957647
21
-5.797168
31
0.0
0
LINE
8
LINES
10
-11.957647
20
-5.797168
30
0.0
11
-11.868908
21
-5.824806
31
0.0
0
LINE
8
LINES
10
-11.868908
20
-5.824806
30
0.0
11
-11.780168
21
-5.853923
31
0.0
0
LINE
8
LINES
10
-11.780168
20
-5.853923
30
0.0
11
-11.691429
21
-5.884438
31
0.0
0
LINE
8
LINES
10
-11.691429
20
-5.884438
30
0.0
11
-11.602689
21
-5.916266
31
0.0
0
LINE
8
LINES
10
-11.602689
20
-5.916266
30
0.0
11
-11.513950
21
-5.949318
31
0.0
0
LINE
8
LINES
10
-11.513950
20
-5.949318
30
0.0
11
-11.425210
21
-5.983501
31
0.0
0
LINE
8
LINES
10
-11.425210
20
-5.983501
30
0.0
11
-11.336471
21
-6.018722
31
0.0
0
LINE
8
LINES
10
-11.336471
20
-6.018722
30
0.0
11
-11.247731
21
-6.054881
31
0.0
0
LINE
8
LINES
10
-11.247731
20
-6.054881
30
0.0
11
-11.158992
21
-6.091878
31
0.0
0
LINE
8
LINES
10
-11.158992
20
-6.091878
30
0.0
11
-11.070252
21
-6.129609
31
0.0
0
LINE
8
LINES
10
-11.070252
20
-6.129609
30
0.0
11
-10.981513
21
-6.167970
31
0.0
0
LINE
8
LINES
10
-10.981513
20
-6.167970
30
0.0
11
-10.892773
21
-6.206854
31
0.0
0
LINE
8
LINES
10
-10.892773
20
-6.206854
30
0.0
11
-10.804034
21
-6.246152
31
0.0
0
LINE
8
LINES
10
-10.804034
20
-6.246152
30
0.0
11
-10.715294
21
-6.285754
31
0.0
0
LINE
8
LINES
10
-10.715294
20
-6.285754
30
0.0
11
-10.626555
21
-6.325551
31
0.0
0
LINE
8
LINES
10
-10.626555
20
-6.325551
30
0.0
11
-10.537815
21
-6.365431
31
0.0
0
LINE
8
LINES
10
-10.537815
20
-6.365431
30
0.0
11
-10.449076
21
-6.405283
31
0.0
0
LINE
8
LINES
10
-10.449076
20
-6.405283
30
0.0
11
-10.360336
21
-6.444996
31
0.0
0
LINE
8
LINES
10
-10.360336
20
-6.444996
30
0.0
11
-10.271597
21
-6.484460
31
0.0
0
LINE
8
LINES
10
-10.271597
20
-6.484460
30
0.0
11
-10.182857
21
-6.523565
31
0.0
0
LINE
8
LINES
10
-10.182857
20
-6.523565
30
0.0
11
-10.094118
21
-6.562200
31
0.0
0
LINE
8
LINES
10
-10.094118
20
-6.562200
30
0.0
11
-10.005378
21
-6.600260
31
0.0
0
LINE
8
LINES
10
-10.005378
20
-6.600260
30
0.0
11
-9.916639
21
-6.637637
31
0.0
0
LINE
8
LINES
10
-9.916639
20
-6.637637
30
0.0
11
-9.827899
21
-6.674228
31
0.0
0
LINE
8
LINES
10
-9.827899
20
-6.674228
30
0.0
11
-9.739160
21
-6.709930
31
0.0
0
LINE
8
LINES
10
-9.739160
20
-6.709930
30
0.0
11
-9.650420
21
-6.744644
31
0.0
0
LINE
8
LINES
10
-9.650420
20
-6.744644
30
0.0
11
-9.561681
21
-6.778274
31
0.0
0
LINE
8
LINES
10
-9.561681
20
-6.778274
30
0.0
11
-9.472941
21
-6.810725
31
0.0
0
LINE
8
LINES
10
-9.472941
20
-6.810725
30
0.0
11
-9.384202
21
-6.841907
31
0.0
0
LINE
8
LINES
10
-9.384202
20
-6.841907
30
0.0
11
-9.295462
21
-6.871733
31
0.0
0
LINE
8
LINES
10
-9.295462
20
-6.871733
30
0.0
11
-9.206723
21
-6.900121
31
0.0
0
LINE
8
LINES
10
-9.206723
20
-6.900121
30
0.0
11
-9.117983
21
-6.926990
31
0.0
0
LINE
8
LINES
10
-9.117983
20
-6.926990
30
0.0
11
-9.029244
21
-6.952267
31
0.0
0
LINE
8
LINES
10
-9.029244
20
-6.952267
30
0.0
11
-8.940504
21
-6.975880
31
0.0
0
LINE
8
LINES
10
-8.940504
20
-6.975880
30
0.0
11
-8.851765
21
-6.997763
31
0.0
0
LINE
8
LINES
10
-8.851765
20
-6.997763
30
0.0
11
-8.763025
21
-7.017857
31
0.0
0
LINE
8
LINES
10
-8.763025
20
-7.017857
30
0.0
11
-8.674286
21
-7.036104
31
0.0
0
LINE
8
LINES
10
-8.674286
20
-7.036104
30
0.0
11
-8.585546
21
-7.052454
31
0.0
0
LINE
8
LINES
10
-8.585546
20
-7.052454
30
0.0
11
-8.496807
21
-7.066862
31
0.0
0
LINE
8
LINES
10
-8.496807
20
-7.066862
30
0.0
11
-8.408067
21
-7.079287
31
0.0
0
LINE
8
LINES
10
-8.408067
20
-7.079287
30
0.0
11
-8.319328
21
-7.089694
31
0.0
0
LINE
8
LINES
10
-8.319328
20
-7.089694
30
0.0
11
-8.230588
21
-7.098055
31
0.0
0
LINE
8
LINES
10
-8.230588
20
-7.098055
30
0.0
11
-8.141849
21
-7.104346
31
0.0
0
LINE
8
LINES
10
-8.141849
20
-7.104346
30
0.0
11
-8.053109
21
-7.108550
31
0.0
0
LINE
8
LINES
10
-8.053109
20
-7.108550
30
0.0
11
-7.964370
21
-7.110655
31
0.0
0
LINE
8
LINES
10
-7.964370
20
-7.110655
30
0.0
11
-7.875630
21
-7.110655
31
0.0
0
LINE
8
LINES
10
-7.875630
20
-7.110655
30
0.0
11
-7.786891
21
-7.108550
31
0.0
0
LINE
8
LINES
10
-7.786891
20
-7.108550
30
0.0
11
-7.698151
21
-7.104346
31
0.0
0
LINE
8
LINES
10
-7.698151
20
-7.104346
30
0.0
11
-7.609412
21
-7.098055
31
0.0
0
LINE
8
LINES
10
-7.609412
20
-7.098055
30
0.0
11
-7.520672
21
-7.089694
31
0.0
0
LINE
8
LINES
10
-7.520672
20
-7.089694
30
0.0
11
-7.431933
21
-7.079287
31
0.0
0
LINE
8
LINES
10
-7.431933
20
-7.079287
30
0.0
11
-7.343193
21
-7.066862
31
0.0
0
LINE
8
LINES
10
-7.343193
20
-7.066862
30
0.0
11
-7.254454
21
-7.052454
31
0.0
0
LINE
8
LINES
10
-7.254454
20
-7.052454
30
0.0
11
-7.165714
21
-7.036104
31
0.0
0
LINE
8
LINES
10
-7.165714
20
-7.036104
30
0.0
11
-7.076975
21
-7.017857
31
0.0
0
LINE
8
LINES
10
-7.076975
20
-7.017857
30
0.0
11
-6.988235
21
-6.997763
31
0.0
0
LINE
8
LINES
10
-6.988235
20
-6.997763
30
0.0
11
-6.899496
21
-6.975880
31
0.0
0
LINE
8
LINES
10
-6.899496
20
-6.975880
30
0.0
11
-6.810756
21
-6.952267
31
0.0
0
LINE
8
LINES
10
-6.810756
20
-6.952267
30
0.0
11
-6.722017
21
-6.926990
31
0.0
0
LINE
8
LINES
10
-6.722017
20
-6.926990
30
0.0
11
-6.633277
21
-6.900121
31
0.0
0
LINE
8
LINES
10
-6.633277
20
-6.900121
30
0.0
11
-6.544538
21
-6.871733
31
0.0
0
LINE
8
LINES
10
-6.544538
20
-6.871733
30
0.0
11
-6.455798
21
-6.841907
31
0.0
0
LINE
8
LINES
10
-6.455798
20
-6.841907
30
0.0
11
-6.367059
21
-6.810725
31
0.0
0
LINE
8
LINES
10
-6.367059
20
-6.810725
30
0.0
11
-6.278319
21
-6.778274
31
0.0
0
LINE
8
LINES
10
-6.278319
20
-6.778274
30
0.0
11
-6.189580
21
-6.744644
31
0.0
0
LINE
8
LINES
10
-6.189580
20
-6.744644
30
0.0
11
-6.100840
21
-6.709930
31
0.0
0
LINE
8
LINES
10
-6.100840
20
-6.709930
30
0.0
11
-6.012101
21
-6.674228
31
0.0
0
LINE
8
LINES
10
-6.012101
20
-6.674228
30
0.0
11
-5.923361
21
-6.637637
31
0.0
0
LINE
8
LINES
10
-5.923361
20
-6.637637
30
0.0
11
-5.834622
21
-6.600260
31
0.0
0
LINE
8
LINES
10
-5.834622
20
-6.600260
30
0.0
11
-5.745882
21
-6.562200
31
0.0
0
LINE
8
LINES
10
-5.745882
20
-6.562200
30
0.0
11
-5.657143
21
-6.523565
31
0.0
0
LINE
8
LINES
10
-5.657143
20
-6.523565
30
0.0
11
-5.568403
21
-6.484460
31
0.0
0
LINE
8
LINES
10
-5.568403
20
-6.484460
30
0.0
11
-5.479664
21
-6.444996
31
0.0
0
LINE
8
LINES
10
-5.479664
20
-6.444996
30
0.0
11
-5.390924
21
-6.405283
31
0.0
0
LINE
8
LINES
10
-5.390924
20
-6.405283
30
0.0
11
-5.302185
21
-6.365431
31
0.0
0
LINE
8
LINES
10
-5.302185
20
-6.365431
30
0.0
11
-5.213445
21
-6.325551
31
0.0
0
LINE
8
LINES
10
-5.213445
20
-6.325551
30
0.0
11
-5.124706
21
-6.285754
31
0.0
0
LINE
8
LINES
10
-5.124706
20
-6.285754
30
0.0
11
-5.035966
21
-6.246152
31
0.0
0
LINE
8
LINES
10
-5.035966
20
-6.246152
30
0.0
11
-4.947227
21
-6.206854
31
0.0
0
LINE
8
LINES
10
-4.947227
20
-6.206854
30
0.0
11
-4.858487
21
-6.167970
31
0.0
0
LINE
8
LINES
10
-4.858487
20
-6.167970
30
0.0
11
-4.769748
21
-6.129609
31
0.0
0
LINE
8
LINES
10
-4.769748
20
-6.129609
30
0.0
11
-4.681008
21
-6.091878
31
0.0
0
LINE
8
LINES
10
-4.681008
20
-6.091878
30
0.0
11
-4.592269
21
-6.054881
31
0.0
0
LINE
8
LINES
10
-4.592269
20
-6.054881
30
0.0
11
-4.503529
21
-6.018722
31
0.0
0
LINE
8
LINES
10
-4.503529
20
-6.018722
30
0.0
11
-4.414790
21
-5.983501
31
0.0
0
LINE
8
LINES
10
-4.414790
20
-5.983501
30
0.0
11
-4.326050
21
-5.949318
31
0.0
0
LINE
8
LINES
10
-4.326050
20
-5.949318
30
0.0
11
-4.237311
21
-5.916266
31
0.0
0
LINE
8
LINES
10
-4.237311
20
-5.916266
30
0.0
11
-4.148571
21
-5.884438
31
0.0
0
LINE
8
LINES
10
-4.148571
20
-5.884438
30
0.0
11
-4.059832
21
-5.853923
31
0.0
0
LINE
8
LINES
10
-4.059832
20
-5.853923
30
0.0
11
-3.971092
21
-5.824806
31
0.0
0
LINE
8
LINES
10
-3.971092
20
-5.824806
30
0.0
11
-3.882353
21
-5.797168
31
0.0
0
LINE
8
LINES
10
-3.882353
20
-5.797168
30
0.0
11
-3.793613
21
-5.771086
31
0.0
0
LINE
8
LINES
10
-3.793613
20
-5.771086
30
0.0
11
-3.704874
21
-5.746633
31
0.0
0
LINE
8
LINES
10
-3.704874
20
-5.746633
30
0.0
11
-3.616134
21
-5.723877
31
0.0
0
LINE
8
LINES
10
-3.616134
20
-5.723877
30
0.0
11
-3.527395
21
-5.702881
31
0.0
0
LINE
8
LINES
10
-3.527395
20
-5.702881
30
0.0
11
-3.438655
21
-5.683704
31
0.0
0
LINE
8
LINES
10
-3.438655
20
-5.683704
30
0.0
11
-3.349916
21
-5.666399
31
0.0
0
LINE
8
LINES
10
-3.349916
20
-5.666399
30
0.0
11
-3.261176
21
-5.651014
31
0.0
0
LINE
8
LINES
10
-3.261176
20
-5.651014
30
0.0
11
-3.172437
21
-5.637594
31
0.0
0
LINE
8
LINES
10
-3.172437
20
-5.637594
30
0.0
11
-3.083697
21
-5.626174
31
0.0
0
LINE
8
LINES
10
-3.083697
20
-5.626174
30
0.0
11
-2.994958
21
-5.616786
31
0.0
0
LINE
8
LINES
10
-2.994958
20
-5.616786
30
0.0
11
-2.906218
21
-5.609458
31
0.0
0
LINE
8
LINES
10
-2.906218
20
-5.609458
30
0.0
11
-2.817479
21
-5.604208
31
0.0
0
LINE
8
LINES
10
-2.817479
20
-5.604208
30
0.0
11
-2.728739
21
-5.601053
31
0.0
0
LINE
8
LINES
10
-2.728739
20
-5.601053
30
0.0
11
-2.640000
21
-5.600000
31
0.0
0
ENDSEC
0
EOF
